<svg preserveAspectRatio="none" overflow="visible" style="display: block;" width="76.8677" height="21.3247" viewBox="0 0 76.8677 21.3247" fill="none" xmlns="http://www.w3.org/2000/svg">
<g id="&#208;&#179;&#208;&#181;&#208;&#189;&#208;&#181;&#209;&#128;&#208;&#176;&#209;&#130;&#208;&#190;&#209;&#128;&#209;&#139; &#208;&#184;&#208;&#183;&#208;&#190;&#208;&#177;&#209;&#128;&#208;&#176;&#208;&#182;&#208;&#181;&#208;&#189;&#208;&#184;&#208;&#185;" opacity="0.7">
<path d="M9.68799 1.21875H6.52051V7.02686H5.13672V0.133301H9.68799V1.21875Z" fill="black"/>
<path d="M13.0044 7.16016C12.3315 7.16016 11.7539 7.01628 11.2715 6.72852C10.7891 6.43652 10.4167 6.02393 10.1543 5.49072C9.89616 4.95752 9.76709 4.32699 9.76709 3.59912V3.59277C9.76709 2.87337 9.89616 2.24495 10.1543 1.70752C10.4167 1.17008 10.7848 0.751139 11.2588 0.450684C11.737 0.150228 12.2956 0 12.9346 0C13.5778 0 14.13 0.14388 14.5913 0.431641C15.0568 0.719401 15.4144 1.12354 15.6641 1.64404C15.9137 2.16032 16.0386 2.76546 16.0386 3.45947V3.94189H10.4653V2.95801H15.353L14.6929 3.87207V3.31982C14.6929 2.82894 14.6167 2.42269 14.4644 2.10107C14.3162 1.77523 14.111 1.5319 13.8486 1.37109C13.5863 1.21029 13.2837 1.12988 12.9409 1.12988C12.5981 1.12988 12.2913 1.21452 12.0205 1.38379C11.7539 1.54883 11.5423 1.79427 11.3857 2.12012C11.2334 2.44596 11.1572 2.84587 11.1572 3.31982V3.87207C11.1572 4.32487 11.2334 4.71208 11.3857 5.03369C11.5381 5.35531 11.7539 5.60075 12.0332 5.77002C12.3167 5.93929 12.651 6.02393 13.0361 6.02393C13.3324 6.02393 13.5863 5.98372 13.7979 5.90332C14.0137 5.81868 14.1893 5.71501 14.3247 5.59229C14.4644 5.46956 14.5596 5.34896 14.6104 5.23047L14.6357 5.17969H15.9688L15.9561 5.23682C15.8968 5.46533 15.7931 5.69385 15.645 5.92236C15.4969 6.14665 15.3001 6.35189 15.0547 6.53809C14.8135 6.72428 14.5215 6.87451 14.1787 6.98877C13.8402 7.10303 13.4487 7.16016 13.0044 7.16016Z" fill="black"/>
<path d="M21.2974 7.02686V4.00537H18.1807V7.02686H16.7969V0.133301H18.1807V2.91357H21.2974V0.133301H22.6812V7.02686H21.2974Z" fill="black"/>
<path d="M26.6831 7.16016C26.0103 7.16016 25.4326 7.01628 24.9502 6.72852C24.4678 6.43652 24.0954 6.02393 23.833 5.49072C23.5749 4.95752 23.4458 4.32699 23.4458 3.59912V3.59277C23.4458 2.87337 23.5749 2.24495 23.833 1.70752C24.0954 1.17008 24.4635 0.751139 24.9375 0.450684C25.4157 0.150228 25.9743 0 26.6133 0C27.2565 0 27.8088 0.14388 28.27 0.431641C28.7355 0.719401 29.0931 1.12354 29.3428 1.64404C29.5924 2.16032 29.7173 2.76546 29.7173 3.45947V3.94189H24.144V2.95801H29.0317L28.3716 3.87207V3.31982C28.3716 2.82894 28.2954 2.42269 28.1431 2.10107C27.995 1.77523 27.7897 1.5319 27.5273 1.37109C27.265 1.21029 26.9624 1.12988 26.6196 1.12988C26.2769 1.12988 25.9701 1.21452 25.6992 1.38379C25.4326 1.54883 25.221 1.79427 25.0645 2.12012C24.9121 2.44596 24.8359 2.84587 24.8359 3.31982V3.87207C24.8359 4.32487 24.9121 4.71208 25.0645 5.03369C25.2168 5.35531 25.4326 5.60075 25.7119 5.77002C25.9954 5.93929 26.3298 6.02393 26.7148 6.02393C27.0111 6.02393 27.265 5.98372 27.4766 5.90332C27.6924 5.81868 27.868 5.71501 28.0034 5.59229C28.1431 5.46956 28.2383 5.34896 28.2891 5.23047L28.3145 5.17969H29.6475L29.6348 5.23682C29.5755 5.46533 29.4718 5.69385 29.3237 5.92236C29.1756 6.14665 28.9788 6.35189 28.7334 6.53809C28.4922 6.72428 28.2002 6.87451 27.8574 6.98877C27.5189 7.10303 27.1274 7.16016 26.6831 7.16016Z" fill="black"/>
<path d="M30.4819 9.32471V0.133301H31.8594V1.21875H31.9673C32.0985 0.964844 32.2677 0.749023 32.4751 0.571289C32.6867 0.393555 32.9279 0.256022 33.1987 0.158691C33.4696 0.0613607 33.7658 0.0126953 34.0874 0.0126953C34.6672 0.0126953 35.1707 0.160807 35.5981 0.457031C36.0256 0.749023 36.3556 1.16162 36.5884 1.69482C36.8254 2.2238 36.9438 2.8501 36.9438 3.57373V3.58643C36.9438 4.31429 36.8275 4.94482 36.5947 5.47803C36.362 6.007 36.0319 6.41748 35.6045 6.70947C35.1771 6.99723 34.6714 7.14111 34.0874 7.14111C33.77 7.14111 33.4738 7.09245 33.1987 6.99512C32.9237 6.89355 32.6803 6.75391 32.4688 6.57617C32.2572 6.39844 32.09 6.18473 31.9673 5.93506H31.8594V9.32471H30.4819ZM33.6938 5.96045C34.0789 5.96045 34.409 5.86523 34.6841 5.6748C34.9591 5.48438 35.1686 5.21143 35.3125 4.85596C35.4606 4.50049 35.5347 4.07731 35.5347 3.58643V3.57373C35.5347 3.07861 35.4606 2.65332 35.3125 2.29785C35.1686 1.94238 34.9591 1.66943 34.6841 1.479C34.409 1.28857 34.0789 1.19336 33.6938 1.19336C33.313 1.19336 32.9829 1.29069 32.7036 1.48535C32.4243 1.67578 32.2106 1.94873 32.0625 2.3042C31.9144 2.65544 31.8403 3.07861 31.8403 3.57373V3.58643C31.8403 4.07308 31.9144 4.49414 32.0625 4.84961C32.2106 5.20508 32.4243 5.48014 32.7036 5.6748C32.9829 5.86523 33.313 5.96045 33.6938 5.96045Z" fill="black"/>
<path d="M39.6128 7.14111C39.1769 7.14111 38.7855 7.05859 38.4385 6.89355C38.0957 6.72428 37.8249 6.48519 37.626 6.17627C37.4271 5.86735 37.3276 5.50553 37.3276 5.09082V5.07812C37.3276 4.66341 37.4271 4.31006 37.626 4.01807C37.8291 3.72607 38.1211 3.49756 38.502 3.33252C38.887 3.16325 39.3525 3.06169 39.8984 3.02783L42.4438 2.87549V3.84668L40.0889 3.99902C39.6149 4.02865 39.2658 4.13021 39.0415 4.30371C38.8172 4.47298 38.7051 4.71208 38.7051 5.021V5.03369C38.7051 5.34684 38.8257 5.5944 39.0669 5.77637C39.3081 5.9541 39.6128 6.04297 39.981 6.04297C40.3237 6.04297 40.6284 5.97526 40.895 5.83984C41.1659 5.7002 41.3774 5.514 41.5298 5.28125C41.6821 5.04427 41.7583 4.77767 41.7583 4.48145V2.31055C41.7583 1.92969 41.6398 1.63981 41.4028 1.44092C41.1701 1.23779 40.8231 1.13623 40.3618 1.13623C39.9767 1.13623 39.6615 1.20394 39.416 1.33936C39.1748 1.47477 39.014 1.6652 38.9336 1.91064L38.9209 1.92969H37.5942L37.6006 1.88525C37.6556 1.50439 37.8058 1.17432 38.0513 0.89502C38.3009 0.611491 38.6268 0.391439 39.0288 0.234863C39.4351 0.0782878 39.8984 0 40.4189 0C40.9987 0 41.4896 0.093099 41.8916 0.279297C42.2979 0.461263 42.6047 0.725749 42.812 1.07275C43.0236 1.41553 43.1294 1.82812 43.1294 2.31055V7.02686H41.7583V6.04932H41.6567C41.5213 6.28206 41.3521 6.48096 41.1489 6.646C40.9458 6.8068 40.7152 6.92952 40.457 7.01416C40.1989 7.0988 39.9175 7.14111 39.6128 7.14111Z" fill="black"/>
<path d="M49.3467 0.133301V1.2251H47.1758V7.02686H45.7983V1.2251H43.6274V0.133301H49.3467Z" fill="black"/>
<path d="M52.5806 7.16016C51.9077 7.16016 51.3258 7.01628 50.835 6.72852C50.3483 6.44076 49.9738 6.03027 49.7114 5.49707C49.4491 4.95964 49.3179 4.32275 49.3179 3.58643V3.57373C49.3179 2.83317 49.4491 2.19629 49.7114 1.66309C49.978 1.12988 50.3547 0.719401 50.8413 0.431641C51.3322 0.14388 51.9119 0 52.5806 0C53.2534 0 53.8332 0.14388 54.3198 0.431641C54.8065 0.715169 55.181 1.12565 55.4434 1.66309C55.71 2.19629 55.8433 2.83317 55.8433 3.57373V3.58643C55.8433 4.32275 55.71 4.95964 55.4434 5.49707C55.181 6.03027 54.8065 6.44076 54.3198 6.72852C53.8374 7.01628 53.2576 7.16016 52.5806 7.16016ZM52.5806 6.00488C52.9741 6.00488 53.3084 5.90967 53.5835 5.71924C53.8586 5.52458 54.068 5.2474 54.2119 4.8877C54.3558 4.52799 54.4277 4.09424 54.4277 3.58643V3.57373C54.4277 3.06169 54.3558 2.62581 54.2119 2.26611C54.068 1.90641 53.8586 1.63135 53.5835 1.44092C53.3084 1.24626 52.9741 1.14893 52.5806 1.14893C52.187 1.14893 51.8527 1.24626 51.5776 1.44092C51.3026 1.63135 51.091 1.90641 50.9429 2.26611C50.799 2.62581 50.7271 3.06169 50.7271 3.57373V3.58643C50.7271 4.09424 50.799 4.52799 50.9429 4.8877C51.091 5.2474 51.3026 5.52458 51.5776 5.71924C51.8527 5.90967 52.187 6.00488 52.5806 6.00488Z" fill="black"/>
<path d="M56.6079 9.32471V0.133301H57.9854V1.21875H58.0933C58.2244 0.964844 58.3937 0.749023 58.6011 0.571289C58.8127 0.393555 59.0539 0.256022 59.3247 0.158691C59.5955 0.0613607 59.8918 0.0126953 60.2134 0.0126953C60.7931 0.0126953 61.2967 0.160807 61.7241 0.457031C62.1515 0.749023 62.4816 1.16162 62.7144 1.69482C62.9513 2.2238 63.0698 2.8501 63.0698 3.57373V3.58643C63.0698 4.31429 62.9535 4.94482 62.7207 5.47803C62.488 6.007 62.1579 6.41748 61.7305 6.70947C61.3031 6.99723 60.7974 7.14111 60.2134 7.14111C59.896 7.14111 59.5998 7.09245 59.3247 6.99512C59.0496 6.89355 58.8063 6.75391 58.5947 6.57617C58.3831 6.39844 58.216 6.18473 58.0933 5.93506H57.9854V9.32471H56.6079ZM59.8198 5.96045C60.2049 5.96045 60.535 5.86523 60.8101 5.6748C61.0851 5.48438 61.2946 5.21143 61.4385 4.85596C61.5866 4.50049 61.6606 4.07731 61.6606 3.58643V3.57373C61.6606 3.07861 61.5866 2.65332 61.4385 2.29785C61.2946 1.94238 61.0851 1.66943 60.8101 1.479C60.535 1.28857 60.2049 1.19336 59.8198 1.19336C59.439 1.19336 59.1089 1.29069 58.8296 1.48535C58.5503 1.67578 58.3366 1.94873 58.1885 2.3042C58.0404 2.65544 57.9663 3.07861 57.9663 3.57373V3.58643C57.9663 4.07308 58.0404 4.49414 58.1885 4.84961C58.3366 5.20508 58.5503 5.48014 58.8296 5.6748C59.1089 5.86523 59.439 5.96045 59.8198 5.96045Z" fill="black"/>
<path d="M63.8408 7.02686V0.133301H65.2246V2.26611H66.5767C67.3765 2.26611 68.0133 2.48193 68.4873 2.91357C68.9613 3.34098 69.1982 3.9165 69.1982 4.64014V4.65283C69.1982 5.37646 68.9613 5.9541 68.4873 6.38574C68.0133 6.81315 67.3765 7.02686 66.5767 7.02686H63.8408ZM66.4624 3.35791H65.2246V5.93506H66.4624C66.8771 5.93506 67.2051 5.81868 67.4463 5.58594C67.6875 5.34896 67.8081 5.03792 67.8081 4.65283V4.64014C67.8081 4.25081 67.6854 3.93978 67.4399 3.70703C67.1987 3.47428 66.8729 3.35791 66.4624 3.35791ZM70.3599 7.02686V0.133301H71.7373V7.02686H70.3599Z" fill="black"/>
<path d="M0 19.0269V12.1333H1.37109V16.9702H2.08838L1.15527 17.4907L4.60205 12.1333H5.97314V19.0269H4.60205V14.1709H3.88477L4.81787 13.644L1.37109 19.0269H0Z" fill="black"/>
<path d="M9.5625 19.1602C9.05469 19.1602 8.59342 19.084 8.17871 18.9316C7.764 18.7751 7.42546 18.5529 7.16309 18.2651C6.90072 17.9731 6.74626 17.6198 6.69971 17.2051L6.69336 17.1479H8.05176L8.06445 17.1987C8.14062 17.4696 8.3099 17.6833 8.57227 17.8398C8.83464 17.9922 9.16048 18.0684 9.5498 18.0684C10.0153 18.0684 10.3771 17.971 10.6353 17.7764C10.8934 17.5775 11.0225 17.3236 11.0225 17.0146V17.002C11.0225 16.6676 10.8976 16.4201 10.6479 16.2593C10.3983 16.0942 10.0322 16.0117 9.5498 16.0117H8.52148V15.0088H9.54346C9.9624 15.0088 10.2777 14.9263 10.4893 14.7612C10.7008 14.5962 10.8066 14.355 10.8066 14.0376V14.0249C10.8066 13.7583 10.703 13.5361 10.4956 13.3584C10.2925 13.1764 9.98568 13.0854 9.5752 13.0854C9.2028 13.0854 8.89388 13.1637 8.64844 13.3203C8.40723 13.4727 8.25911 13.68 8.2041 13.9424L8.19775 13.9741H6.87744L6.88379 13.9297C6.9388 13.5361 7.08057 13.1955 7.30908 12.9077C7.5376 12.62 7.8444 12.3957 8.22949 12.2349C8.61882 12.0741 9.07585 11.9937 9.60059 11.9937C10.1338 11.9937 10.5908 12.0719 10.9717 12.2285C11.3525 12.3851 11.6445 12.6051 11.8477 12.8887C12.0508 13.1722 12.1523 13.5044 12.1523 13.8853V13.8979C12.1523 14.2534 12.0444 14.5666 11.8286 14.8374C11.617 15.104 11.3335 15.2796 10.978 15.3643V15.4722C11.2912 15.5356 11.5514 15.6372 11.7588 15.7769C11.9704 15.9165 12.127 16.09 12.2285 16.2974C12.3343 16.5005 12.3872 16.7311 12.3872 16.9893V17.002C12.3872 17.4294 12.2708 17.806 12.0381 18.1318C11.8053 18.4535 11.4774 18.7052 11.0542 18.8872C10.631 19.0692 10.1338 19.1602 9.5625 19.1602Z" fill="black"/>
<path d="M16.0083 19.1602C15.3354 19.1602 14.7536 19.0163 14.2627 18.7285C13.776 18.4408 13.4015 18.0303 13.1392 17.4971C12.8768 16.9596 12.7456 16.3228 12.7456 15.5864V15.5737C12.7456 14.8332 12.8768 14.1963 13.1392 13.6631C13.4058 13.1299 13.7824 12.7194 14.269 12.4316C14.7599 12.1439 15.3397 12 16.0083 12C16.6812 12 17.2609 12.1439 17.7476 12.4316C18.2342 12.7152 18.6087 13.1257 18.8711 13.6631C19.1377 14.1963 19.271 14.8332 19.271 15.5737V15.5864C19.271 16.3228 19.1377 16.9596 18.8711 17.4971C18.6087 18.0303 18.2342 18.4408 17.7476 18.7285C17.2651 19.0163 16.6854 19.1602 16.0083 19.1602ZM16.0083 18.0049C16.4019 18.0049 16.7362 17.9097 17.0112 17.7192C17.2863 17.5246 17.4958 17.2474 17.6396 16.8877C17.7835 16.528 17.8555 16.0942 17.8555 15.5864V15.5737C17.8555 15.0617 17.7835 14.6258 17.6396 14.2661C17.4958 13.9064 17.2863 13.6313 17.0112 13.4409C16.7362 13.2463 16.4019 13.1489 16.0083 13.1489C15.6147 13.1489 15.2804 13.2463 15.0054 13.4409C14.7303 13.6313 14.5187 13.9064 14.3706 14.2661C14.2267 14.6258 14.1548 15.0617 14.1548 15.5737V15.5864C14.1548 16.0942 14.2267 16.528 14.3706 16.8877C14.5187 17.2474 14.7303 17.5246 15.0054 17.7192C15.2804 17.9097 15.6147 18.0049 16.0083 18.0049Z" fill="black"/>
<path d="M23.0063 19.1602C22.2869 19.1602 21.6818 19.0015 21.1909 18.6841C20.7 18.3625 20.3298 17.8906 20.0801 17.2686C19.8304 16.6465 19.7056 15.8784 19.7056 14.9644V14.9517C19.7056 14.0461 19.7733 13.2653 19.9087 12.6094C20.0483 11.9492 20.262 11.4033 20.5498 10.9717C20.8376 10.54 21.2057 10.2142 21.6543 9.99414C22.1071 9.77409 22.6445 9.65137 23.2666 9.62598L24.0283 9.59424C24.3118 9.58154 24.6123 9.54769 24.9297 9.49268C25.2471 9.43766 25.5475 9.35726 25.8311 9.25146V10.4004C25.7126 10.4935 25.4904 10.5739 25.1646 10.6416C24.8387 10.7093 24.4854 10.7516 24.1045 10.7686L23.3491 10.8003C22.8244 10.8215 22.3906 10.923 22.0479 11.105C21.7051 11.2827 21.4364 11.5578 21.2417 11.9302C21.0513 12.2983 20.9159 12.7808 20.8354 13.3774L20.8164 13.5107H20.9243C21.0767 13.2314 21.265 12.9987 21.4893 12.8125C21.7178 12.6221 21.9801 12.4782 22.2764 12.3809C22.5726 12.2835 22.8963 12.2349 23.2476 12.2349C23.8654 12.2349 24.4007 12.3724 24.8535 12.6475C25.3063 12.9225 25.6576 13.3118 25.9072 13.8154C26.1569 14.3148 26.2817 14.9051 26.2817 15.5864V15.5991C26.2817 16.3312 26.1506 16.9639 25.8882 17.4971C25.6258 18.0303 25.2492 18.4408 24.7583 18.7285C24.2674 19.0163 23.6834 19.1602 23.0063 19.1602ZM22.9937 18.0112C23.3914 18.0112 23.73 17.916 24.0093 17.7256C24.2928 17.5352 24.5065 17.2622 24.6504 16.9067C24.7985 16.547 24.8726 16.1175 24.8726 15.6182V15.6055C24.8726 15.1273 24.7985 14.7231 24.6504 14.3931C24.5065 14.0588 24.2928 13.8027 24.0093 13.625C23.73 13.4473 23.3914 13.3584 22.9937 13.3584C22.5959 13.3584 22.2552 13.4473 21.9717 13.625C21.6924 13.8027 21.4787 14.0588 21.3306 14.3931C21.1825 14.7231 21.1084 15.1273 21.1084 15.6055V15.6182C21.1084 16.1175 21.1825 16.547 21.3306 16.9067C21.4787 17.2622 21.6924 17.5352 21.9717 17.7256C22.2552 17.916 22.5959 18.0112 22.9937 18.0112Z" fill="black"/>
<path d="M27.0591 21.3247V12.1333H28.4365V13.2188H28.5444C28.6756 12.9648 28.8449 12.749 29.0522 12.5713C29.2638 12.3936 29.505 12.256 29.7759 12.1587C30.0467 12.0614 30.3429 12.0127 30.6646 12.0127C31.2443 12.0127 31.7479 12.1608 32.1753 12.457C32.6027 12.749 32.9328 13.1616 33.1655 13.6948C33.4025 14.2238 33.521 14.8501 33.521 15.5737V15.5864C33.521 16.3143 33.4046 16.9448 33.1719 17.478C32.9391 18.007 32.609 18.4175 32.1816 18.7095C31.7542 18.9972 31.2485 19.1411 30.6646 19.1411C30.3472 19.1411 30.0509 19.0924 29.7759 18.9951C29.5008 18.8936 29.2575 18.7539 29.0459 18.5762C28.8343 18.3984 28.6672 18.1847 28.5444 17.9351H28.4365V21.3247H27.0591ZM30.271 17.9604C30.6561 17.9604 30.9862 17.8652 31.2612 17.6748C31.5363 17.4844 31.7458 17.2114 31.8896 16.856C32.0378 16.5005 32.1118 16.0773 32.1118 15.5864V15.5737C32.1118 15.0786 32.0378 14.6533 31.8896 14.2979C31.7458 13.9424 31.5363 13.6694 31.2612 13.479C30.9862 13.2886 30.6561 13.1934 30.271 13.1934C29.8901 13.1934 29.5601 13.2907 29.2808 13.4854C29.0015 13.6758 28.7878 13.9487 28.6396 14.3042C28.4915 14.6554 28.4175 15.0786 28.4175 15.5737V15.5864C28.4175 16.0731 28.4915 16.4941 28.6396 16.8496C28.7878 17.2051 29.0015 17.4801 29.2808 17.6748C29.5601 17.8652 29.8901 17.9604 30.271 17.9604Z" fill="black"/>
<path d="M36.1899 19.1411C35.7541 19.1411 35.3626 19.0586 35.0156 18.8936C34.6729 18.7243 34.402 18.4852 34.2031 18.1763C34.0042 17.8674 33.9048 17.5055 33.9048 17.0908V17.0781C33.9048 16.6634 34.0042 16.3101 34.2031 16.0181C34.4062 15.7261 34.6982 15.4976 35.0791 15.3325C35.4642 15.1632 35.9297 15.0617 36.4756 15.0278L39.021 14.8755V15.8467L36.666 15.999C36.1921 16.0286 35.8429 16.1302 35.6187 16.3037C35.3944 16.473 35.2822 16.7121 35.2822 17.021V17.0337C35.2822 17.3468 35.4028 17.5944 35.644 17.7764C35.8853 17.9541 36.1899 18.043 36.5581 18.043C36.9009 18.043 37.2056 17.9753 37.4722 17.8398C37.743 17.7002 37.9546 17.514 38.1069 17.2812C38.2593 17.0443 38.3354 16.7777 38.3354 16.4814V14.3105C38.3354 13.9297 38.217 13.6398 37.98 13.4409C37.7472 13.2378 37.4002 13.1362 36.939 13.1362C36.5539 13.1362 36.2386 13.2039 35.9932 13.3394C35.752 13.4748 35.5911 13.6652 35.5107 13.9106L35.498 13.9297H34.1714L34.1777 13.8853C34.2327 13.5044 34.383 13.1743 34.6284 12.895C34.8781 12.6115 35.2039 12.3914 35.606 12.2349C36.0122 12.0783 36.4756 12 36.9961 12C37.5758 12 38.0667 12.0931 38.4688 12.2793C38.875 12.4613 39.1818 12.7257 39.3892 13.0728C39.6007 13.4155 39.7065 13.8281 39.7065 14.3105V19.0269H38.3354V18.0493H38.2339C38.0985 18.2821 37.9292 18.481 37.7261 18.646C37.5229 18.8068 37.2923 18.9295 37.0342 19.0142C36.776 19.0988 36.4946 19.1411 36.1899 19.1411Z" fill="black"/>
<path d="M41.6899 19.0269H40.0459L42.8516 15.3579L40.1538 12.1333H41.7534L43.9497 14.9707H44.3496V12.1333H45.6826V14.9707H46.0825L48.2788 12.1333H49.8594L47.1807 15.3389L50.0054 19.0269H48.3423L46.0889 15.9609H45.6826V19.0269H44.3496V15.9609H43.9434L41.6899 19.0269Z" fill="black"/>
<path d="M53.0425 19.1602C52.3696 19.1602 51.792 19.0163 51.3096 18.7285C50.8271 18.4365 50.4548 18.0239 50.1924 17.4907C49.9342 16.9575 49.8052 16.327 49.8052 15.5991V15.5928C49.8052 14.8734 49.9342 14.245 50.1924 13.7075C50.4548 13.1701 50.8229 12.7511 51.2969 12.4507C51.7751 12.1502 52.3337 12 52.9727 12C53.6159 12 54.1681 12.1439 54.6294 12.4316C55.0949 12.7194 55.4525 13.1235 55.7021 13.644C55.9518 14.1603 56.0767 14.7655 56.0767 15.4595V15.9419H50.5034V14.958H55.3911L54.731 15.8721V15.3198C54.731 14.8289 54.6548 14.4227 54.5024 14.1011C54.3543 13.7752 54.1491 13.5319 53.8867 13.3711C53.6243 13.2103 53.3218 13.1299 52.979 13.1299C52.6362 13.1299 52.3294 13.2145 52.0586 13.3838C51.792 13.5488 51.5804 13.7943 51.4238 14.1201C51.2715 14.446 51.1953 14.8459 51.1953 15.3198V15.8721C51.1953 16.3249 51.2715 16.7121 51.4238 17.0337C51.5762 17.3553 51.792 17.6007 52.0713 17.77C52.3548 17.9393 52.6891 18.0239 53.0742 18.0239C53.3704 18.0239 53.6243 17.9837 53.8359 17.9033C54.0518 17.8187 54.2274 17.715 54.3628 17.5923C54.5024 17.4696 54.5977 17.349 54.6484 17.2305L54.6738 17.1797H56.0068L55.9941 17.2368C55.9349 17.4653 55.8312 17.6938 55.6831 17.9224C55.535 18.1466 55.3382 18.3519 55.0928 18.5381C54.8516 18.7243 54.5596 18.8745 54.2168 18.9888C53.8783 19.103 53.4868 19.1602 53.0425 19.1602Z" fill="black"/>
<path d="M61.3354 19.0269V16.0054H58.2188V19.0269H56.835V12.1333H58.2188V14.9136H61.3354V12.1333H62.7192V19.0269H61.3354Z" fill="black"/>
<path d="M63.8203 19.0269V12.1333H65.1914V16.9702H65.9087L64.9756 17.4907L68.4224 12.1333H69.7935V19.0269H68.4224V14.1709H67.7051L68.6382 13.644L65.1914 19.0269H63.8203Z" fill="black"/>
<path d="M70.8945 19.0269V12.1333H72.2656V16.9702H72.9829L72.0498 17.4907L75.4966 12.1333H76.8677V19.0269H75.4966V14.1709H74.7793L75.7124 13.644L72.2656 19.0269H70.8945ZM73.8843 11.1812C73.4315 11.1812 73.0358 11.0881 72.6973 10.9019C72.3587 10.7157 72.0942 10.4639 71.9038 10.1465C71.7134 9.82487 71.6182 9.46094 71.6182 9.05469H72.7544C72.7586 9.39746 72.8602 9.6958 73.0591 9.94971C73.2622 10.2036 73.5373 10.3306 73.8843 10.3306C74.2355 10.3306 74.5106 10.2036 74.7095 9.94971C74.9084 9.6958 75.0099 9.39746 75.0142 9.05469H76.1504C76.1504 9.46094 76.0552 9.82487 75.8647 10.1465C75.6743 10.4639 75.4098 10.7157 75.0713 10.9019C74.7327 11.0881 74.3371 11.1812 73.8843 11.1812Z" fill="black"/>
</g>
</svg>
